PathFileType	4	(X/Y/Z)	/Users/itak/Documents/Research/Walk-IL/dataset/trc/00086_00006.trc
DataRate	CameraRate	NumFrames	NumMarkers	Units	OrigDataRate	OrigDataStartFrame	OrigNumFrames
100.000000	100.000000	4	53	mm	100.000000	69	559
Frame#	Time	RPSI			LPSI			L3			STRN			T10			C7			CLAV			RBAK			LBAK			LSHO			LUPA			LAEL			LAOL			LWTS			LWPS			LFRA			LIFD			LHPS			LHTS			RSHO			RUPA			RAEL			RAOL			RWTS			RWPS			RFRA			RIFD			RHTS			RHPS			RBHD			LFHD			RFHD			LBHD			LHIP			RHIP			RASI			LASI			LKNE			LTHI			LANK			LTIP			LTOE			LMT1			LMT5			LHEE			RKNE			RTHI			RANK			RTIP			RTOE			RMT1			RMT5			RHEE			
		X1	Y1	Z1	X2	Y2	Z2	X3	Y3	Z3	X4	Y4	Z4	X5	Y5	Z5	X6	Y6	Z6	X7	Y7	Z7	X8	Y8	Z8	X9	Y9	Z9	X10	Y10	Z10	X11	Y11	Z11	X12	Y12	Z12	X13	Y13	Z13	X14	Y14	Z14	X15	Y15	Z15	X16	Y16	Z16	X17	Y17	Z17	X18	Y18	Z18	X19	Y19	Z19	X20	Y20	Z20	X21	Y21	Z21	X22	Y22	Z22	X23	Y23	Z23	X24	Y24	Z24	X25	Y25	Z25	X26	Y26	Z26	X27	Y27	Z27	X28	Y28	Z28	X29	Y29	Z29	X30	Y30	Z30	X31	Y31	Z31	X32	Y32	Z32	X33	Y33	Z33	X34	Y34	Z34	X35	Y35	Z35	X36	Y36	Z36	X37	Y37	Z37	X38	Y38	Z38	X39	Y39	Z39	X40	Y40	Z40	X41	Y41	Z41	X42	Y42	Z42	X43	Y43	Z43	X44	Y44	Z44	X45	Y45	Z45	X46	Y46	Z46	X47	Y47	Z47	X48	Y48	Z48	X49	Y49	Z49	X50	Y50	Z50	X51	Y51	Z51	X52	Y52	Z52	X53	Y53	Z53	

70	0.6900000000000001	-1377.769897460938	1038.582275390625	466.2157592773438	-1393.777465820312	1030.16748046875	291.7459411621094	-1381.281982421875	1085.667358398438	370.695068359375	-1135.955322265625	1290.147338867188	366.8008728027344	-1402.483520507812	1218.760131835938	360.5237426757812	-1349.727783203125	1487.050659179688	356.0758056640625	-1168.451293945312	1404.220703125	364.2986450195312	-1410.230834960938	1347.342041015625	430.6537780761719	-1368.474487304688	1448.239501953125	254.5514068603516	-1262.6943359375	1454.262084960938	184.8817138671875	-1272.645874023438	1325.483642578125	108.5858535766602	-1245.002563476562	1110.994384765625	93.32056427001953	-1310.9345703125	1095.384033203125	176.0776214599609	-1149.095581054688	875.01513671875	162.0090789794922	-1204.876708984375	861.2351684570312	100.7721939086914	-1220.856079101562	1002.61279296875	87.80294036865234	-1129.280517578125	689.2023315429688	182.6239013671875	-1170.459594726562	782.08984375	107.6811447143555	-1121.874877929688	793.6063232421875	159.0500030517578	-1289.912719726562	1453.052368164062	533.9469604492188	-1302.304809570312	1384.201904296875	596.3821411132812	-1330.340698242188	1120.2275390625	626.4954833984375	-1306.193359375	1097.430908203125	532.692138671875	-1177.991821289062	871.4586791992188	603.951416015625	-1253.186157226562	855.233642578125	648.8001098632812	-1316.23681640625	1040.5322265625	635.9496459960938	-1164.130126953125	683.0763549804688	594.8657836914062	-1151.579345703125	771.9151000976562	607.7299194335938	-1211.615600585938	767.7344360351562	655.78125	-1320.212890625	1654.19677734375	435.0323181152344	-1155.177490234375	1711.838134765625	298.0162353515625	-1157.206420898438	1708.222290039062	423.7604675292969	-1327.157836914062	1665.326416015625	297.3160095214844	-1293.466552734375	964.56982421875	199.2967681884766	-1307.431884765625	963.882080078125	538.5069580078125	-1183.803588867188	981.77197265625	513.120361328125	-1178.205322265625	975.7145385742188	242.8477935791016	-1218.959838867188	502.4860534667969	253.2436370849609	-1251.724731445312	641.9202270507812	216.2027740478516	-1350.724609375	53.30324935913086	246.2237854003906	-1292.14208984375	264.9540710449219	236.7236328125	-1144.347778320312	46.54257202148438	249.1508178710938	-1193.469848632812	44.1443977355957	303.6289367675781	-1248.212890625	45.47893524169922	206.6203460693359	-1402.640502929688	50.6085090637207	322.0359497070312	-1233.52783203125	519.7651977539062	513.3598022460938	-1225.0576171875	790.4158935546875	543.6512451171875	-1350.604125976562	45.36871719360352	505.826171875	-1260.74365234375	398.2501831054688	517.7153930664062	-1130.853149414062	43.68715286254883	481.9669189453125	-1189.650634765625	49.90607833862305	438.7322692871094	-1227.7529296875	48.67728042602539	528.5921020507812	-1393.208984375	48.68381500244141	445.5147399902344	
71	0.7000000000000001	-1377.89697265625	1038.482055664062	466.1455993652344	-1393.922607421875	1030.11376953125	291.6348571777344	-1381.436767578125	1085.629760742188	370.610107421875	-1136.10498046875	1290.150634765625	366.6765747070312	-1402.65087890625	1218.730102539062	360.5343017578125	-1349.819091796875	1487.02978515625	355.9821472167969	-1168.695556640625	1404.23193359375	364.1068725585938	-1410.345947265625	1347.326416015625	430.5599975585938	-1368.66455078125	1448.192749023438	254.3963928222656	-1262.867919921875	1454.211181640625	184.7187805175781	-1272.859985351562	1325.41162109375	108.4568481445312	-1245.22900390625	1110.918579101562	93.23984527587891	-1311.094482421875	1095.338989257812	176.0460662841797	-1149.313354492188	874.9082641601562	161.9918365478516	-1205.102661132812	861.1315307617188	100.7655487060547	-1221.048706054688	1002.524536132812	87.76864624023438	-1129.570556640625	689.1320190429688	182.6042022705078	-1170.770141601562	782.0062866210938	107.6592864990234	-1122.49072265625	793.4058227539062	159.1712799072266	-1290.06494140625	1453.0830078125	533.7614135742188	-1302.367309570312	1384.251586914062	596.2425537109375	-1330.38037109375	1120.27294921875	626.4324340820312	-1306.368041992188	1097.497802734375	532.6331176757812	-1177.909423828125	871.5732421875	603.8447875976562	-1253.103759765625	855.3455810546875	648.7731323242188	-1316.244506835938	1040.59716796875	635.8970947265625	-1164.05078125	683.2029418945312	594.8134155273438	-1151.511352539062	772.0240478515625	607.6870727539062	-1211.54736328125	767.8765258789062	655.75	-1320.329833984375	1654.129638671875	434.8372192382812	-1155.306396484375	1711.8046875	297.8077392578125	-1157.373046875	1708.23583984375	423.5668029785156	-1327.318481445312	1665.31298828125	297.1068725585938	-1293.526611328125	964.5421752929688	199.2468872070312	-1307.561889648438	963.8754272460938	538.4659423828125	-1184.141723632812	981.7635498046875	513.058837890625	-1178.348266601562	975.72021484375	242.7588348388672	-1218.96630859375	502.4866638183594	253.22314453125	-1251.741333007812	641.9163818359375	216.1729583740234	-1350.7236328125	53.30423736572266	246.2263031005859	-1292.1416015625	264.9442749023438	236.7183532714844	-1144.34326171875	46.54095840454102	249.1520385742188	-1193.465576171875	44.13853454589844	303.63427734375	-1248.210693359375	45.47881317138672	206.6232299804688	-1402.643798828125	50.61542129516602	322.0316162109375	-1233.49951171875	519.785400390625	513.3140258789062	-1225.162719726562	790.4369506835938	543.6249389648438	-1350.607177734375	45.37116241455078	505.8225402832031	-1260.702392578125	398.2499389648438	517.6921997070312	-1130.862548828125	43.68301773071289	481.9707336425781	-1189.652709960938	49.9068603515625	438.7340698242188	-1227.751220703125	48.67645263671875	528.591552734375	-1393.207763671875	48.69001770019531	445.5049743652344	
72	0.71	-1378.026123046875	1038.38671875	466.0841369628906	-1394.073974609375	1030.06103515625	291.5281982421875	-1381.595947265625	1085.593627929688	370.5269470214844	-1136.260131835938	1290.147827148438	366.5506286621094	-1402.8203125	1218.70361328125	360.5372619628906	-1349.918701171875	1487.015258789062	355.8851928710938	-1168.9150390625	1404.246215820312	363.9148864746094	-1410.449340820312	1347.307739257812	430.4767150878906	-1368.842895507812	1448.14697265625	254.2469329833984	-1263.031616210938	1454.15771484375	184.5609588623047	-1273.065063476562	1325.334594726562	108.3313674926758	-1245.435546875	1110.836181640625	93.17305755615234	-1311.237670898438	1095.289794921875	176.0289764404297	-1149.532592773438	874.7940063476562	161.9925079345703	-1205.330200195312	861.0208740234375	100.7714462280273	-1221.231201171875	1002.426391601562	87.75090026855469	-1129.873046875	689.0608520507812	182.604248046875	-1171.079956054688	781.9125366210938	107.6515655517578	-1123.126708984375	793.192626953125	159.3089599609375	-1290.226196289062	1453.110473632812	533.5701293945312	-1302.425903320312	1384.296630859375	596.1066284179688	-1330.425048828125	1120.313232421875	626.3705444335938	-1306.554565429688	1097.559692382812	532.5716552734375	-1177.846801757812	871.6776733398438	603.7318115234375	-1253.038940429688	855.4454956054688	648.7426147460938	-1316.259521484375	1040.656494140625	635.8486938476562	-1163.971435546875	683.319091796875	594.7557373046875	-1151.445556640625	772.1464233398438	607.6408081054688	-1211.486450195312	768.01708984375	655.7149047851562	-1320.438842773438	1654.062744140625	434.6412048339844	-1155.417602539062	1711.759643554688	297.6029052734375	-1157.537963867188	1708.247680664062	423.3853759765625	-1327.469360351562	1665.29248046875	296.8999938964844	-1293.598022460938	964.5150756835938	199.1955718994141	-1307.691040039062	963.8732299804688	538.4169921875	-1184.425537109375	981.7650146484375	512.9966430664062	-1178.505615234375	975.72216796875	242.6624450683594	-1218.977661132812	502.4858093261719	253.2039031982422	-1251.76318359375	641.911865234375	216.1465606689453	-1350.723876953125	53.30507659912109	246.2288513183594	-1292.149658203125	264.9355773925781	236.712158203125	-1144.339965820312	46.5398063659668	249.1540985107422	-1193.463623046875	44.13350296020508	303.6380920410156	-1248.209228515625	45.47909927368164	206.6255187988281	-1402.650146484375	50.62471008300781	322.0252075195312	-1233.46337890625	519.80615234375	513.2555541992188	-1225.264282226562	790.4553833007812	543.5966796875	-1350.611450195312	45.37520217895508	505.8184204101562	-1260.652954101562	398.2470703125	517.6631469726562	-1130.87109375	43.67919921875	481.9739074707031	-1189.653442382812	49.90650939941406	438.7344360351562	-1227.7490234375	48.67753601074219	528.590576171875	-1393.205688476562	48.6948356628418	445.4962768554688	
73	0.72	-1378.156494140625	1038.301025390625	466.0309753417969	-1394.23095703125	1030.011474609375	291.4266357421875	-1381.759765625	1085.559326171875	370.4445495605469	-1136.420654296875	1290.139038085938	366.4225463867188	-1402.992797851562	1218.6806640625	360.5274963378906	-1350.031127929688	1487.006958007812	355.7796325683594	-1169.102905273438	1404.262573242188	363.7256774902344	-1410.543334960938	1347.286376953125	430.4014587402344	-1369.008544921875	1448.102661132812	254.1046752929688	-1263.185913085938	1454.101806640625	184.4088897705078	-1273.261474609375	1325.25341796875	108.2101974487305	-1245.623901367188	1110.748168945312	93.12028503417969	-1311.369262695312	1095.237060546875	176.0245056152344	-1149.755126953125	874.6749267578125	162.0083312988281	-1205.562866210938	860.9063110351562	100.7874221801758	-1221.409301757812	1002.3203125	87.74723052978516	-1130.184204101562	688.990234375	182.6210021972656	-1171.388061523438	781.8088989257812	107.6565933227539	-1123.74365234375	792.9830932617188	159.4447784423828	-1290.393920898438	1453.134643554688	533.3763427734375	-1302.483276367188	1384.3369140625	595.9730834960938	-1330.4755859375	1120.348999023438	626.3086547851562	-1306.749755859375	1097.618041992188	532.508056640625	-1177.806518554688	871.7704467773438	603.6149291992188	-1252.994018554688	855.5335693359375	648.7073364257812	-1316.283203125	1040.710083007812	635.8035278320312	-1163.8935546875	683.4215087890625	594.6964721679688	-1151.386108398438	772.2819213867188	607.59326171875	-1211.435302734375	768.1553955078125	655.6774291992188	-1320.548828125	1654.00244140625	434.4391479492188	-1155.514404296875	1711.704956054688	297.402587890625	-1157.701416015625	1708.25732421875	423.2139892578125	-1327.611206054688	1665.265380859375	296.69482421875	-1293.681274414062	964.489501953125	199.1425323486328	-1307.820434570312	963.8759155273438	538.3592529296875	-1184.64892578125	981.7777709960938	512.9351196289062	-1178.67578125	975.7202758789062	242.5604248046875	-1218.996826171875	502.4840393066406	253.1849517822266	-1251.793334960938	641.907470703125	216.1223297119141	-1350.725341796875	53.30545043945312	246.2309265136719	-1292.16748046875	264.9283752441406	236.7042236328125	-1144.338134765625	46.53929901123047	249.15673828125	-1193.464599609375	44.13005065917969	303.6397705078125	-1248.208862304688	45.47965240478516	206.6269226074219	-1402.658447265625	50.63457489013672	322.017822265625	-1233.42236328125	519.8276977539062	513.1856079101562	-1225.36328125	790.4705810546875	543.5664672851562	-1350.616455078125	45.38031387329102	505.8143615722656	-1260.599731445312	398.2413330078125	517.628662109375	-1130.878295898438	43.67604446411133	481.9762573242188	-1189.653076171875	49.90521240234375	438.7335815429688	-1227.746459960938	48.6804313659668	528.5894165039062	-1393.202270507812	48.697265625	445.4894714355469	
